<?xml version="1.0" encoding="UTF-8"?>
<svg xmlns="http://www.w3.org/2000/svg" width="1200" height="1920" viewBox="0 0 1200 1920" fill="none">
  <defs>
    <linearGradient id="brandGradient" x1="0" y1="0" x2="1" y2="1">
      <stop offset="0%" stop-color="#f0862a"/>
      <stop offset="100%" stop-color="#c23a5e"/>
    </linearGradient>
    <linearGradient id="warmGradient" x1="0" y1="0" x2="1" y2="1">
      <stop offset="0%" stop-color="#FFD6A8"/>
      <stop offset="100%" stop-color="#F97316"/>
    </linearGradient>
    <filter id="softShadow" x="-20%" y="-20%" width="140%" height="140%">
      <feDropShadow dx="0" dy="18" stdDeviation="18" flood-color="#D95C2B" flood-opacity="0.14"/>
    </filter>
    
  </defs>
  
      <rect x="0" y="0" width="1200" height="1920" rx="0" fill="#faf9f8" />
      
    <rect x="60" y="132" width="1080" height="576" rx="28" fill="url(#warmGradient)" />
    <path d="M 146.4 592.8 C 362.40000000000003 408.48, 492 500.64, 686.4 373.91999999999996 S 1010.4 454.56000000000006, 1075.1999999999998 304.79999999999995" stroke="rgba(255,255,255,0.72)" stroke-width="19.439999999999998" fill="none" stroke-linecap="round"/>
    <circle cx="902.4" cy="270.24" r="86.4" fill="rgba(255,255,255,0.56)" />
    <text x="146.4" y="235.68" fill="#fff" font-family="Arial, Helvetica, sans-serif" font-size="75.60000000000001" font-weight="700" text-anchor="start">GOA</text>
  
      
    <text x="60" y="71.28" fill="#ffffff" font-family="Arial, Helvetica, sans-serif" font-size="41" font-weight="700" text-anchor="start">9:41</text>
    <rect x="972" y="66" width="54" height="24" rx="4" fill="#ffffff" />
    <rect x="1036.8" y="66" width="46.8" height="24" rx="4" fill="#ffffff" opacity="0.82"/>
    <rect x="1098" y="66" width="28.8" height="24" rx="4" fill="#ffffff" opacity="0.65"/>
  
      <rect x="60" y="684" width="1080" height="960" rx="48" fill="#faf9f8" />
      <rect x="84" y="732" width="168.00000000000003" height="60" rx="30" fill="url(#brandGradient)" />
      <text x="168" y="774" fill="#fff" font-family="Arial, Helvetica, sans-serif" font-size="19" font-weight="700" text-anchor="middle">Domestic</text>
      <text x="84" y="840" fill="#1c1917" font-family="Arial, Helvetica, sans-serif" font-size="48" font-weight="800" text-anchor="start">Luxury Goa Escape</text>
      <text x="84" y="900" fill="#78716c" font-family="Arial, Helvetica, sans-serif" font-size="22" font-weight="600" text-anchor="start">North Goa · 5 days · Beachside stays</text>
      <rect x="84" y="948" width="132" height="60" rx="30" fill="url(#brandGradient)" />
      <text x="150" y="987.6" fill="#fff" font-family="Arial, Helvetica, sans-serif" font-size="18" font-weight="700" text-anchor="middle">Itinerary</text>
      <rect x="240" y="948" width="132" height="60" rx="30" fill="#ffffff" stroke="#e8e5e1" stroke-width="2"/>
      <text x="306" y="987.6" fill="#78716c" font-family="Arial, Helvetica, sans-serif" font-size="18" font-weight="700" text-anchor="middle">Inclusions</text>
      <rect x="396.00000000000006" y="948" width="132" height="60" rx="30" fill="#ffffff" stroke="#e8e5e1" stroke-width="2"/>
      <text x="462" y="987.6" fill="#78716c" font-family="Arial, Helvetica, sans-serif" font-size="18" font-weight="700" text-anchor="middle">Policies</text>
      
    <rect x="84" y="1056" width="612" height="220.32" rx="28" fill="#ffffff" stroke="#e8e5e1" stroke-width="2"/>
    <rect x="104" y="1076" width="97.92" height="97.92" rx="24" fill="url(#brandGradient)" />
    <text x="132.96" y="1126.38" fill="#fff" font-family="Arial, Helvetica, sans-serif" font-size="31" font-weight="800" text-anchor="middle">D1</text>
    <text x="218.64000000000001" y="1117.2" fill="#1c1917" font-family="Arial, Helvetica, sans-serif" font-size="40" font-weight="700" text-anchor="start">Arrival + Sunset Cruise</text>
    <text x="218.64000000000001" y="1166.16" fill="#78716c" font-family="Arial, Helvetica, sans-serif" font-size="26" font-weight="500" text-anchor="start">Private transfer, check-in and marina evening</text>
    <rect x="218.64000000000001" y="1196.76" width="367.2" height="10" rx="999" fill="#f5f3f1" />
    <rect x="218.64000000000001" y="1221.24" width="257.03999999999996" height="10" rx="999" fill="#f5f3f1" />
  
      
    <rect x="84" y="1368" width="612" height="220.32" rx="28" fill="#ffffff" stroke="#e8e5e1" stroke-width="2"/>
    <rect x="104" y="1388" width="97.92" height="97.92" rx="24" fill="url(#brandGradient)" />
    <text x="132.96" y="1438.38" fill="#fff" font-family="Arial, Helvetica, sans-serif" font-size="31" font-weight="800" text-anchor="middle">D2</text>
    <text x="218.64000000000001" y="1429.2" fill="#1c1917" font-family="Arial, Helvetica, sans-serif" font-size="40" font-weight="700" text-anchor="start">North Goa Beaches</text>
    <text x="218.64000000000001" y="1478.16" fill="#78716c" font-family="Arial, Helvetica, sans-serif" font-size="26" font-weight="500" text-anchor="start">Fort Aguada, Candolim and curated dining</text>
    <rect x="218.64000000000001" y="1508.76" width="367.2" height="10" rx="999" fill="#f5f3f1" />
    <rect x="218.64000000000001" y="1533.24" width="257.03999999999996" height="10" rx="999" fill="#f5f3f1" />
  
      <rect x="732" y="732" width="408.00000000000006" height="552" rx="36" fill="#ffffff" stroke="#e8e5e1" stroke-width="2" filter="url(#softShadow)"/>
      <text x="768" y="816" fill="#1c1917" font-family="Arial, Helvetica, sans-serif" font-size="24" font-weight="800" text-anchor="start">Why travelers love this trip</text>
      <circle cx="780" cy="891.6" r="9.6" fill="#e8612d" />
      <text x="816" y="900" fill="#78716c" font-family="Arial, Helvetica, sans-serif" font-size="20" font-weight="600" text-anchor="start">Luxury beach stays</text>
      <circle cx="780" cy="975.6" r="9.6" fill="#e8612d" />
      <text x="816" y="984" fill="#78716c" font-family="Arial, Helvetica, sans-serif" font-size="20" font-weight="600" text-anchor="start">Private airport transfers</text>
      <circle cx="780" cy="1059.6" r="9.6" fill="#e8612d" />
      <text x="816" y="1068" fill="#78716c" font-family="Arial, Helvetica, sans-serif" font-size="20" font-weight="600" text-anchor="start">Expert local support</text>
      <circle cx="780" cy="1143.6" r="9.6" fill="#e8612d" />
      <text x="816" y="1152" fill="#78716c" font-family="Arial, Helvetica, sans-serif" font-size="20" font-weight="600" text-anchor="start">Instant trip chat updates</text>
      <rect x="60" y="1716" width="1080" height="96" rx="48" fill="url(#brandGradient)" />
      <text x="600" y="1778.4" fill="#fff" font-family="Arial, Helvetica, sans-serif" font-size="26" font-weight="800" text-anchor="middle">Enquire Now</text>
    
</svg>